<?xml version="1.0" encoding="UTF-8"?>
<svg xmlns="http://www.w3.org/2000/svg" version="1.1" width="32" height="32" viewBox="0 0 32 32">
    <style>
        path { fill: #ffffff; }
        @media (prefers-color-scheme: light) {
            path { fill: #000000; }
        }
    </style>
    <rect width="32" height="32" fill="none"/>
    <path d="M4,20 L28,20 L28,22 L4,22 L4,20 Z M6,13 C6,13 8,9 10,9 L22,9 C24,9 26,13 26,13 L26,20 L6,20 L6,13 Z M8,13 L24,13 L24,19 L8,19 L8,13 Z M24,13 C24,13 25,11 26,11 L26,13 L24,13 Z M6,13 C6,13 5,11 4,11 L4,13 L6,13 Z M10,9 L22,9 C23,9 24,13 24,13 L8,13 C8,13 9,9 10,9 Z"/>
</svg> 